<svg width="22" height="20" viewBox="0 0 22 20" fill="none" xmlns="http://www.w3.org/2000/svg">
<path id="Vector" d="M13.2005 6.89824L13.0754 7.5H13.69H20C20.8239 7.5 21.5 8.17614 21.5 9V11C21.5 11.1905 21.4644 11.3667 21.3971 11.5409L18.3804 18.5831L18.3804 18.5831L18.3785 18.5877C18.1544 19.1254 17.6238 19.5 17 19.5H8C7.17614 19.5 6.5 18.8239 6.5 18V8C6.5 7.5861 6.66462 7.21501 6.93868 6.94836L6.93871 6.9484L6.94382 6.94328L13.1719 0.705701L13.8764 1.40355C13.8767 1.40383 13.877 1.4041 13.8773 1.40437C14.0525 1.58002 14.1641 1.82566 14.1698 2.08902L14.1448 2.35555L13.2005 6.89824ZM20.4596 11.197L20.5 11.1026V11V9V8.5H20H11.8446L12.8295 3.76176L13.1703 2.12264L11.9864 3.30645L7.64645 7.64645L7.5 7.79289V8V18V18.5H8H17H17.3297L17.4596 18.197L20.4596 11.197ZM0.5 8.5H3.5V19.5H0.5V8.5Z" fill="black" stroke="black"/>
</svg>
