<svg width="17" height="20" viewBox="0 0 17 20" fill="none" xmlns="http://www.w3.org/2000/svg">
<path id="Vector" d="M8.79488 20C9.92309 20 10.8462 19.0769 10.8462 17.9487H6.7436C6.7436 19.0769 7.66668 20 8.79488 20ZM14.9487 13.8462V8.71795C14.9487 5.56923 13.2769 2.93333 10.3333 2.2359V1.53846C10.3333 0.68718 9.64616 0 8.79488 0C7.9436 0 7.25642 0.68718 7.25642 1.53846V2.2359C4.32309 2.93333 2.64103 5.55897 2.64103 8.71795V13.8462L0.589752 15.8974V16.9231H17V15.8974L14.9487 13.8462ZM12.8974 14.8718H4.69232V8.71795C4.69232 6.17436 6.24103 4.10256 8.79488 4.10256C11.3487 4.10256 12.8974 6.17436 12.8974 8.71795V14.8718Z" fill="black"/>
</svg>
